<?xml version="1.0" encoding="utf-8"?>
<!-- Generator: Adobe Illustrator 23.0.2, SVG Export Plug-In . SVG Version: 6.00 Build 0)  -->
<svg version="1.1" id="Layer_1" xmlns="http://www.w3.org/2000/svg" xmlns:xlink="http://www.w3.org/1999/xlink" x="0px" y="0px"
	 viewBox="0 0 471.5 258" style="enable-background:new 0 0 471.5 258;" xml:space="preserve">
<style type="text/css">
	.st0{fill:#231F20;stroke:#231F20;stroke-miterlimit:10;}
	.st1{fill:#642265;}
	.st2{fill:#F26722;}
	.st3{fill:none;stroke:#FFFFFF;stroke-width:2;stroke-miterlimit:10;}
</style>
<title>logo_cmyk_opticalSpacing</title>
<g>
	<path class="st0" d="M13.4,211.8c-8.6-9.9-12.9-21.9-12.9-35.9c0-13.7,4.3-25.5,12.9-35.2s19.1-14.7,31.3-14.7
		c10.1,0,18.7,3,25.8,9c7.1,6.1,10.7,13.4,10.7,21.9h-8.8c0-6.1-2.7-11.4-8.1-15.8s-12-6.6-19.7-6.6c-9.8,0-18.2,4-25.2,12
		c-6.9,8.2-10.3,18-10.3,29.4c0,11.7,3.4,21.7,10.3,30c7,8.3,15.4,12.5,25.2,12.5c7.6,0,14-2.3,19.3-6.8c5.4-4.5,8.1-9.9,8.1-16.2
		h9.2c0,8.6-3.6,16-10.7,22.1c-7.2,6.1-15.8,9.2-25.8,9.2C32.5,226.7,22,221.7,13.4,211.8z"/>
	<path class="st0" d="M98,222.5V92.7h8.8v54.1c2.8-6.2,7.4-11.4,13.1-15.1c5.5-3.7,12-5.7,18.6-5.7c8.6-0.1,16.8,3.5,22.6,9.9
		c6.2,6.2,9.6,14.6,9.4,23.4v63.3h-8.8V161c0-7.6-2.3-14-6.8-19.3c-4.5-5.4-10-8.1-16.4-8.1c-7.2,0-13.6,2.6-19.5,7.9
		c-6.1,5.3-10.4,12.3-12.3,20.1v60.9L98,222.5z"/>
	<path class="st0" d="M199.3,212.2c-7.6-9.2-11.4-21.3-11.4-36.3c0-15,3.8-27.1,11.4-36.3c7.6-9,17.7-13.6,30.2-13.6
		s22.6,4.2,30.2,12.5c7.6,8.3,11.4,19.4,11.4,33.3v4.2h-74.4c0,12.7,3,22.8,9,30.4s14,11.4,23.9,11.4c7.2,0.1,14.2-2,20.1-5.9
		c5.9-3.8,10.4-9.4,12.7-16h8.8c-1.5,8.6-6.1,15.8-14,21.5c-7.9,5.7-17.1,8.5-27.6,8.5C216.9,225.8,206.8,221.2,199.3,212.2z
		 M262.3,167.5v-3.3c-0.6-8.4-4.3-16.2-10.5-21.9c-6-5.7-14-8.8-22.3-8.8c-8.3-0.1-16.2,3.2-22.1,9c-6.3,5.9-10.1,13.9-10.7,22.6
		v2.4L262.3,167.5z"/>
	<path class="st0" d="M288.8,222.5v-93.3h8.8v21c2.2-6.3,6-12,11-16.4c5-4.1,10.2-6.1,15.8-6.1h5v10.1c-0.5,0-1.1-0.2-1.5-0.4
		c-0.3-0.2-0.6-0.4-0.9-0.4c-6.9,0-13.1,2.9-18.6,8.8s-9.1,13.2-10.7,22.2v54.7L288.8,222.5z"/>
	<path class="st0" d="M343.8,251h6.8c3.3,0,7-2.7,11-8.1s7.5-12.5,10.7-21.2l-35.7-92.4h8.1l31.8,81.7l31.5-81.7h8.5l-40.1,103.4
		c-2.3,6.7-6,12.9-10.7,18.2c-4.5,4.5-9.1,6.8-13.6,6.8h-8.3V251z"/>
	<path class="st0" d="M429.5,222.5V92.7h8.8v129.8H429.5z"/>
	<path class="st0" d="M220.3,109.5c-4.3-5.2-6.7-11.8-6.5-18.5c-0.2-6.9,2.1-13.6,6.4-18.9c4.3-5.3,9.5-7.9,15.6-7.9
		c3.8,0,7.5,1.2,10.6,3.4c3.1,2.3,5.5,5.5,6.8,9.2V46.4h4.6V116h-4.7v-10.2c-1.2,3.4-3.6,6.4-6.7,8.3c-3.1,2.1-6.8,3.2-10.6,3.2
		C229.8,117.2,224.6,114.7,220.3,109.5z M248.1,107.1c3.4-4.7,5.2-10.3,5-16.1c0.2-5.7-1.6-11.4-5-16c-3.4-4.5-7.5-6.7-12.3-6.7
		c-4.8,0-8.8,2.2-12.2,6.7c-3.4,4.6-5.2,10.3-5,16c-0.2,5.8,1.6,11.4,5,16.1c3.3,4.5,7.4,6.7,12.2,6.7S244.7,111.5,248.1,107.1z"/>
	<path class="st0" d="M272.2,113.6c-3.5-2.8-5.3-6.2-5.3-10.1c0-3.8,1.7-7,5.2-9.9c3.6-2.9,8-4.6,12.7-4.9c4.1-0.3,8.2-1.1,12.1-2.4
		c3.2-1.1,4.8-2.4,4.8-3.9v-4.5c0-2.6-1.4-4.8-4.2-6.6c-6.1-3.6-13.7-3.6-19.8-0.1c-2.7,1.8-4,3.9-4,6.3v2.6h-4.5v-3
		c0-3.3,1.8-6.2,5.3-8.6c3.9-2.4,8.4-3.7,12.9-3.5c4.6-0.1,9.2,1,13.2,3.4c3.7,2.3,5.5,5,5.5,8.2v30.3c0,1.8,0.4,3.5,1.3,5
		c0.6,1.2,1.8,2,3.2,2.1c0.4,0,0.7,0,1.1-0.1c0.3-0.1,0.5-0.2,0.7-0.4v2.2c-1.4,0.6-2.9,0.9-4.5,0.8c-1.8,0-3.6-0.9-4.7-2.3
		c-1.3-1.6-1.9-3.6-1.9-5.6c-1.1,2.8-3.2,5.1-6,6.4c-3.3,1.7-6.9,2.5-10.6,2.5C280.2,117.8,275.8,116.4,272.2,113.6z M295.8,110.1
		c3.2-2.6,5.2-6.2,5.9-10.2V88.4c-1.1,0.9-3.1,1.7-6,2.4c-3.6,0.7-7.2,1.3-10.9,1.5c-3.4,0.2-6.7,1.5-9.3,3.8
		c-2.3,1.8-3.7,4.6-3.8,7.5c0,3,1.4,5.8,3.9,7.5c2.6,2.1,5.8,3.3,9.1,3.2C288.8,114.2,292.7,112.8,295.8,110.1L295.8,110.1z"/>
	<path class="st0" d="M334,116l-18.6-50h4.3l17,44.6L352.8,66h4.5L339,116L334,116z"/>
	<path class="st0" d="M366.3,46.4h4.7v7.2h-4.7V46.4z M366.3,116V66h4.7v50H366.3z"/>
	<path class="st0" d="M387.5,112.6c-3.6-2.7-5.7-6.9-5.7-11.4h4.3c0,3.4,1.6,6.6,4.3,8.7c3,2.4,6.7,3.6,10.4,3.5
		c4.7,0,8.5-1.1,11.4-3.2c2.7-2,4.3-5.2,4.2-8.6c0-2.7-1.5-4.9-4.5-6.8c-3-1.9-7-3-12-3.4c-5.3-0.5-9.6-2-12.7-4.5
		c-3-2.1-4.8-5.6-4.8-9.3c-0.2-3.8,1.7-7.5,4.8-9.6c3.2-2.3,7.7-3.4,13.5-3.4c5.6,0,10,1.2,13.2,3.6c3.2,2.2,5.1,5.9,5,9.7h-4.3
		c-0.5-2.9-2.1-5.5-4.5-7.2c-2.8-1.8-6.1-2.7-9.4-2.6c-4.2,0-7.6,0.9-10.1,2.6c-2.4,1.5-3.8,4-3.8,6.8c0,2.7,1.5,4.9,4.6,6.8
		s7,3,12,3.4c5.2,0.5,9.5,2,12.7,4.7c5.5,4.6,6.3,12.8,1.7,18.3c-0.7,0.9-1.6,1.7-2.5,2.3c-3.6,2.7-8.4,4-14.5,4
		C396.1,117.4,391.3,115.7,387.5,112.6z"/>
	<path class="st1" d="M470.1,31.8c0-11.3-3.3-22.4-9.6-31.8c-34.7,18.5-46.6,57.9-26.7,88C433.8,64.4,448.4,43.3,470.1,31.8z"/>
	<path class="st2" d="M470.1,31.8c-21.7,11.6-36.2,32.6-36.3,56.3c9.9-5.2,18.5-12.7,25-21.8C466,56.2,469.9,44.1,470.1,31.8z"/>
	<path class="st3" d="M471.1,30.8c0,0-35.2,15.1-37.3,57.3"/>
</g>
</svg>
